# Blender v2.69 (sub 0) OBJ File: 'spike4.blend'
# www.blender.org
mtllib spike4.mtl
o Cone
v 0.000000 -1.500000 -0.500000
v 0.191342 -1.500000 -0.461940
v 0.353553 -1.500000 -0.353553
v 0.461940 -1.500000 -0.191342
v 0.500000 -1.500000 0.000000
v 0.000000 1.500000 0.000000
v 0.461940 -1.500000 0.191342
v 0.353553 -1.500000 0.353553
v 0.191342 -1.500000 0.461940
v 0.000000 -1.500000 0.500000
v -0.191342 -1.500000 0.461940
v -0.353553 -1.500000 0.353554
v -0.461940 -1.500000 0.191342
v -0.500000 -1.500000 -0.000000
v -0.461940 -1.500000 -0.191342
v -0.353553 -1.500000 -0.353554
v -0.191341 -1.500000 -0.461940
vt 0.183088 0.000000
vt 0.220537 0.813081
vt 0.134816 0.003256
vt 0.083071 0.010419
vt 0.035730 0.020396
vt 0.220537 0.001145
vt 0.256748 0.013595
vt 0.404888 0.813943
vt 0.220537 0.023213
vt 0.304498 0.005806
vt 0.356518 0.001032
vt 0.404888 0.000000
vt 0.636989 0.005806
vt 0.737379 0.813943
vt 0.589239 0.013595
vt 0.689009 0.001032
vt 0.737379 0.000000
vt 0.540869 0.812911
vt 0.589239 0.000000
vt 0.589239 0.813943
vt 0.488849 0.808137
vt 0.441099 0.800348
vt 0.404888 0.790730
vt 0.000000 0.031670
vt 0.980009 0.205692
vt 0.943071 0.242630
vt 1.000000 0.157430
vt 0.737379 0.105191
vt 0.757370 0.205692
vt 0.737379 0.157430
vt 0.794308 0.242630
vt 0.757370 0.056929
vt 0.980009 0.056929
vt 0.894809 0.000000
vt 0.943071 0.019991
vt 0.842570 0.000000
vt 1.000000 0.105191
vt 0.794308 0.019991
vt 0.842570 0.262621
vt 0.894809 0.262621
vn -0.548293 0.161323 -0.820579
vn 0.192535 0.161323 -0.967939
vn -0.820579 0.161323 -0.548293
vn -0.967939 0.161323 -0.192535
vn -0.967939 0.161323 0.192535
vn -0.820579 0.161323 0.548293
vn -0.548293 0.161323 0.820579
vn -0.192535 0.161323 0.967939
vn 0.192535 0.161323 0.967939
vn 0.548293 0.161323 0.820579
vn 0.820579 0.161323 0.548293
vn 0.967939 0.161323 0.192535
vn 0.967939 0.161323 -0.192535
vn 0.820579 0.161323 -0.548293
vn -0.192535 0.161323 -0.967939
vn 0.548293 0.161323 -0.820579
vn 0.000000 -1.000000 0.000000
vn 0.000000 -1.000000 -0.000002
vn 0.000000 -1.000000 0.000001
vn 0.000000 -1.000000 0.000002
usemtl Material
s off
f 16/1/1 6/2/1 17/3/1
f 1/4/2 6/2/2 2/5/2
f 15/6/3 6/2/3 16/1/3
f 14/7/4 6/8/4 15/9/4
f 13/10/5 6/8/5 14/7/5
f 12/11/6 6/8/6 13/10/6
f 11/12/7 6/8/7 12/11/7
f 10/13/8 6/14/8 11/15/8
f 9/16/9 6/14/9 10/13/9
f 8/17/10 6/14/10 9/16/10
f 7/18/11 6/19/11 8/20/11
f 5/21/12 6/19/12 7/18/12
f 4/22/13 6/19/13 5/21/13
f 3/23/14 6/19/14 4/22/14
f 17/3/15 6/2/15 1/4/15
f 2/5/16 6/2/16 3/24/16
f 1/25/17 2/26/17 17/27/17
f 9/28/18 7/29/18 8/30/18
f 9/28/17 5/31/17 7/29/17
f 10/32/17 5/31/17 9/28/17
f 15/33/17 13/34/17 14/35/17
f 15/33/17 12/36/17 13/34/17
f 16/37/17 12/36/17 15/33/17
f 16/37/17 11/38/17 12/36/17
f 16/37/19 10/32/19 11/38/19
f 16/37/17 5/31/17 10/32/17
f 16/37/18 4/39/18 5/31/18
f 3/40/20 4/39/20 16/37/20
f 2/26/17 3/40/17 17/27/17
f 3/40/18 16/37/18 17/27/18
