# Blender v2.69 (sub 0) OBJ File: ''
# www.blender.org
mtllib cubeZhiLi.mtl
o Cube
v 0.662156 -0.662156 -0.662156
v 0.662156 -0.662156 0.662156
v -0.662157 -0.662156 0.662156
v -0.662156 -0.662156 -0.662157
v 0.662157 0.662156 -0.662156
v 0.662156 0.662156 0.662157
v -0.662157 0.662156 0.662156
v -0.662156 0.662156 -0.662156
vt 0.999900 0.999900
vt 0.000100 0.999900
vt 0.999900 0.000100
vt 0.999900 0.999899
vt 0.999899 0.000100
vt 0.000100 0.000100
vn 0.000000 -1.000000 0.000000
vn 0.000000 1.000000 0.000000
vn 1.000000 -0.000000 0.000000
vn -0.000000 -0.000000 1.000000
vn -1.000000 -0.000000 -0.000000
vn 0.000000 0.000000 -1.000000
vn 1.000000 0.000000 0.000001
usemtl Material
s off
f 1/1/1 2/2/1 4/3/1
f 5/4/2 8/2/2 6/5/2
f 1/3/3 5/1/3 2/6/3
f 2/3/4 6/1/4 3/6/4
f 3/2/5 7/6/5 4/1/5
f 5/3/6 1/1/6 8/6/6
f 2/2/1 3/6/1 4/3/1
f 8/2/2 7/6/2 6/5/2
f 5/1/7 6/2/7 2/6/7
f 6/1/4 7/2/4 3/6/4
f 7/6/5 8/3/5 4/1/5
f 1/1/6 4/2/6 8/6/6
