# Blender v2.69 (sub 0) OBJ File: 'obelisk.blend'
# www.blender.org
mtllib obelisk.mtl
o Cube
v 0.500000 0.011459 -0.500000
v 0.500000 0.011459 0.500000
v -0.500000 0.011459 0.500000
v -0.500000 0.011459 -0.500000
v 0.500000 0.556277 -0.500000
v 0.500000 0.556277 0.500000
v -0.500000 0.556277 0.500000
v -0.500000 0.556277 -0.500000
v 0.400000 0.556277 -0.400000
v 0.400000 0.556277 0.400000
v -0.400000 0.556277 0.400000
v -0.400000 0.556277 -0.400000
v 0.249476 7.446713 -0.249476
v 0.249476 7.446713 0.249477
v -0.249476 7.446713 0.249476
v -0.249476 7.446713 -0.249476
v -0.000000 8.095038 0.000000
v -0.000000 8.095038 0.000000
v -0.000000 8.095038 0.000000
v -0.000000 8.095038 0.000000
vt 0.000000 0.000000
vt 0.000000 -1.000000
vt -1.000000 0.000000
vt 0.100000 -0.100000
vt 0.000000 0.141934
vt -0.000000 1.141934
vt -1.000000 0.141934
vt 1.000000 0.141934
vt 0.000000 -0.858066
vt 0.900000 0.141934
vt 0.100000 0.141934
vt 0.749476 12.789182
vt 1.000000 0.000000
vt 2.000000 -0.000000
vt 1.100000 0.100000
vt 0.000000 1.000000
vt -1.000000 1.000000
vt -0.100000 0.900000
vt 1.000000 1.000000
vt 1.000000 2.000000
vt 0.900000 1.100000
vt 0.749476 0.789182
vt 0.250524 0.789182
vt 0.500000 1.979168
vt 0.250524 12.789182
vt 0.250523 12.789182
vt 0.500000 0.500000
vt 0.250523 0.789182
vt -1.000000 -1.000000
vt 0.100000 -0.900000
vt -1.000000 1.141934
vt 1.000000 1.141934
vt -1.000000 -0.858066
vt 1.900000 0.100000
vt -0.900000 0.900000
vt 0.900000 1.900000
vn 0.577349 -0.577349 -0.577349
vn 0.577349 -0.577349 0.577349
vn -0.577349 -0.577349 -0.577349
vn -0.577349 0.577349 -0.577349
vn -0.577349 0.577349 0.577349
vn -0.294504 0.909116 -0.294504
vn 0.577349 0.577349 -0.577349
vn 0.577349 0.577349 0.577349
vn -0.577349 -0.577349 0.577349
vn -0.294504 0.909116 0.294504
vn -0.686697 0.238411 -0.686697
vn 0.294504 0.909116 -0.294504
vn 0.294504 0.909116 0.294504
vn -0.686697 0.238411 0.686697
vn -0.135105 0.051973 0.989441
vn 0.686697 0.238411 -0.686697
vn 0.686697 0.238411 0.686697
vn 0.135105 0.051973 0.989441
vn 0.000000 0.043855 0.999023
vn 0.000000 0.035707 0.999359
usemtl Material.001
s 1
f 1/1/1 2/2/2 4/3/3
f 8/1/4 7/2/5 12/4/6
f 1/5/1 5/6/7 2/7/2
f 2/5/2 6/6/8 3/7/9
f 3/5/9 7/6/5 4/8/3
f 5/5/7 1/9/1 8/7/4
f 12/10/6 11/11/10 16/12/11
f 7/13/5 6/14/8 11/15/10
f 5/16/7 8/17/4 9/18/12
f 6/19/8 5/20/7 10/21/13
f 16/22/11 15/23/14 19/24/15
f 11/11/10 10/10/13 15/25/14
f 9/10/12 12/11/6 13/12/16
f 10/11/13 9/10/12 14/26/17
f 17/27/18 20/27/19 18/27/20
f 15/23/14 14/22/17 18/24/20
f 13/22/16 16/23/11 20/24/19
f 14/28/17 13/22/16 17/24/18
f 2/2/2 3/29/9 4/3/3
f 7/2/5 11/30/10 12/4/6
f 5/6/7 6/31/8 2/7/2
f 6/6/8 7/31/5 3/7/9
f 7/6/5 8/32/4 4/8/3
f 1/9/1 4/33/3 8/7/4
f 11/11/10 15/25/14 16/12/11
f 6/14/8 10/34/13 11/15/10
f 8/17/4 12/35/6 9/18/12
f 5/20/7 9/36/12 10/21/13
f 20/24/19 16/22/11 19/24/15
f 10/10/13 14/12/17 15/25/14
f 12/11/6 16/25/11 13/12/16
f 9/10/12 13/12/16 14/26/17
f 20/27/19 19/27/15 18/27/20
f 19/24/15 15/23/14 18/24/20
f 17/24/18 13/22/16 20/24/19
f 18/24/20 14/28/17 17/24/18
