# Blender v2.69 (sub 0) OBJ File: 'obelisk1.blend'
# www.blender.org
mtllib obelisk.mtl
o Cube
v 0.250000 -0.136204 -0.250000
v 0.250000 -0.136204 0.250000
v -0.250000 -0.136204 0.250000
v -0.250000 -0.136204 -0.250000
v 0.250000 0.136204 -0.250000
v 0.250000 0.136204 0.250000
v -0.250000 0.136204 0.250000
v -0.250000 0.136204 -0.250000
v 0.200000 0.136204 -0.200000
v 0.200000 0.136204 0.200000
v -0.200000 0.136204 0.200000
v -0.200000 0.136204 -0.200000
v 0.124738 3.581423 -0.124738
v 0.124738 3.581423 0.124738
v -0.124738 3.581423 0.124738
v -0.124738 3.581423 -0.124738
v -0.000000 3.905585 0.000000
v -0.000000 3.905585 0.000000
v -0.000000 3.905585 0.000000
v -0.000000 3.905585 0.000000
vt 0.000000 0.000000
vt 0.000000 -1.000000
vt -1.000000 0.000000
vt 0.100000 -0.100000
vt -0.000000 1.000000
vt 1.000000 0.000000
vt 0.900000 0.000000
vt 0.100000 0.000000
vt 0.749476 12.647247
vt 2.000000 -0.000000
vt 1.100000 0.100000
vt -1.000000 1.000000
vt -0.100000 0.900000
vt 1.000000 1.000000
vt 1.000000 2.000000
vt 0.900000 1.100000
vt 0.749476 0.647247
vt 0.250524 0.647247
vt 0.500000 1.837234
vt 0.250524 12.647247
vt 0.250523 12.647247
vt 0.500000 0.500000
vt 0.250523 0.647247
vt -1.000000 -1.000000
vt 0.100000 -0.900000
vt 1.900000 0.100000
vt -0.900000 0.900000
vt 0.900000 1.900000
vn 0.577349 -0.577349 -0.577349
vn 0.577349 -0.577349 0.577349
vn -0.577349 -0.577349 -0.577349
vn -0.577349 0.577349 -0.577349
vn -0.577349 0.577349 0.577349
vn -0.294504 0.909116 -0.294504
vn 0.577349 0.577349 -0.577349
vn 0.577349 0.577349 0.577349
vn -0.577349 -0.577349 0.577349
vn -0.294504 0.909116 0.294504
vn -0.686697 0.238411 -0.686697
vn 0.294504 0.909116 -0.294504
vn 0.294504 0.909116 0.294504
vn -0.686697 0.238411 0.686697
vn -0.135105 0.051973 0.989441
vn 0.686697 0.238411 -0.686697
vn 0.686697 0.238411 0.686697
vn 0.135105 0.051973 0.989441
vn 0.000000 0.043855 0.999023
vn 0.000000 0.035707 0.999359
usemtl Material.001
s 1
f 1/1/1 2/2/2 4/3/3
f 8/1/4 7/2/5 12/4/6
f 1/1/1 5/5/7 2/3/2
f 2/1/2 6/5/8 3/3/9
f 3/1/9 7/5/5 4/6/3
f 5/1/7 1/2/1 8/3/4
f 12/7/6 11/8/10 16/9/11
f 7/6/5 6/10/8 11/11/10
f 5/5/7 8/12/4 9/13/12
f 6/14/8 5/15/7 10/16/13
f 16/17/11 15/18/14 19/19/15
f 11/8/10 10/7/13 15/20/14
f 9/7/12 12/8/6 13/9/16
f 10/8/13 9/7/12 14/21/17
f 17/22/18 20/22/19 18/22/20
f 15/18/14 14/17/17 18/19/20
f 13/17/16 16/18/11 20/19/19
f 14/23/17 13/17/16 17/19/18
f 2/2/2 3/24/9 4/3/3
f 7/2/5 11/25/10 12/4/6
f 5/5/7 6/12/8 2/3/2
f 6/5/8 7/12/5 3/3/9
f 7/5/5 8/14/4 4/6/3
f 1/2/1 4/24/3 8/3/4
f 11/8/10 15/20/14 16/9/11
f 6/10/8 10/26/13 11/11/10
f 8/12/4 12/27/6 9/13/12
f 5/15/7 9/28/12 10/16/13
f 20/19/19 16/17/11 19/19/15
f 10/7/13 14/9/17 15/20/14
f 12/8/6 16/20/11 13/9/16
f 9/7/12 13/9/16 14/21/17
f 20/22/19 19/22/15 18/22/20
f 19/19/15 15/18/14 18/19/20
f 17/19/18 13/17/16 20/19/19
f 18/19/20 14/23/17 17/19/18
